<svg viewBox="0 0 28 32" fill="none" xmlns="http://www.w3.org/2000/svg">
<path d="M20.5405 30.5867C19.9228 30.33 18.9781 29.56 18.433 28.9367C17.6336 27.9833 17.4519 27.36 17.4519 25.82V23.9133L13.3823 21.53L9.31261 19.11L8.07717 19.99C3.71681 22.96 -1.98799 17.7167 0.737231 13.2067C2.29969 10.6033 5.67897 9.79668 8.04083 11.41L9.31261 12.29L13.3823 9.90668L17.4519 7.52335V5.58001C17.4519 3.93001 17.6336 3.41668 18.542 2.35335C21.3036 -0.799985 26.1363 0.0800146 27.2991 3.96668C28.1712 6.82668 26.5724 9.76001 23.7018 10.53C22.1757 10.97 19.9955 10.53 19.2688 9.65001C19.0144 9.35668 18.651 9.10001 18.4694 9.10001C18.2877 9.10001 16.3619 10.1267 14.1817 11.41L10.221 13.6833V15.7L10.1847 17.7167L13.7093 19.7333C18.6874 22.5933 18.324 22.4833 19.5958 21.53C22.9387 19.0367 28.0622 22.19 27.5171 26.4067C27.0447 29.89 23.5564 31.98 20.5405 30.5867ZM24.7555 28.2033C26.7904 26.15 25.7366 22.8867 22.8661 22.4467C20.4315 22.0433 18.324 24.7933 19.3051 27.14C20.2135 29.3767 23.0477 29.9267 24.7555 28.2033ZM7.53213 18.12C8.94924 16.8733 8.94924 14.5267 7.53213 13.28C5.24294 11.3 1.82732 12.7667 1.82732 15.7C1.82732 18.6333 5.24294 20.1 7.53213 18.12ZM25.0099 7.81668C26.1727 6.42335 26.1 4.55335 24.7555 3.19668C23.0114 1.47335 20.4679 1.91335 19.3051 4.22335C18.6147 5.58001 18.8691 6.57001 20.1772 7.89001C21.3399 9.06335 21.6306 9.17335 22.8297 8.99001C23.6291 8.84335 24.5012 8.36668 25.0099 7.81668Z"/>
</svg>

