<svg width="36" height="36" viewBox="0 0 36 36" fill="none" xmlns="http://www.w3.org/2000/svg">
<rect x="2" y="2" width="32" height="32" rx="16" fill="#FFDBEC"/>
<g clip-path="url(#clip0_467_12040)">
<path d="M17.9997 24.6666V11.3333M14.6663 24.6666V21.3333M14.6663 14.6666V11.3333M21.333 24.6666V21.3333M21.333 14.6666V11.3333M11.333 14.6666H24.6663M11.333 21.3333H24.6663M24.6663 21.4666V14.5333C24.6663 13.4132 24.6663 12.8532 24.4484 12.4253C24.2566 12.049 23.9506 11.743 23.5743 11.5513C23.1465 11.3333 22.5864 11.3333 21.4663 11.3333L14.533 11.3333C13.4129 11.3333 12.8529 11.3333 12.425 11.5513C12.0487 11.743 11.7427 12.049 11.551 12.4253C11.333 12.8532 11.333 13.4132 11.333 14.5333L11.333 21.4666C11.333 22.5868 11.333 23.1468 11.551 23.5746C11.7427 23.951 12.0487 24.2569 12.425 24.4487C12.8529 24.6666 13.4129 24.6666 14.533 24.6666H21.4663C22.5864 24.6666 23.1465 24.6666 23.5743 24.4487C23.9506 24.2569 24.2566 23.951 24.4484 23.5746C24.6663 23.1468 24.6663 22.5868 24.6663 21.4666Z" stroke="#E064A0" stroke-width="1.33333" stroke-linecap="round" stroke-linejoin="round"/>
</g>
<rect x="2" y="2" width="32" height="32" rx="16" stroke="#FDF5F8" stroke-width="4"/>
<defs>
<clipPath id="clip0_467_12040">
<rect width="16" height="16" fill="white" transform="translate(10 10)"/>
</clipPath>
</defs>
</svg>
